<svg height='100px' width='100px'  fill="#000000" xmlns="http://www.w3.org/2000/svg" xmlns:xlink="http://www.w3.org/1999/xlink" version="1.1" x="0px" y="0px" viewBox="0 0 32 32" style="enable-background:new 0 0 32 32;" xml:space="preserve"><style type="text/css">
	.st0{display:none;}
</style><g><g><path d="M21.4,10H10.6c-0.6,0-1,0.4-1,1v15c0,0.6,0.4,1,1,1h10.8c0.6,0,1-0.4,1-1V11C22.4,10.4,21.9,10,21.4,10z M15,21.5    c0,0.6-0.4,1-1,1s-1-0.4-1-1V16c0-0.6,0.4-1,1-1s1,0.4,1,1V21.5z M19,21.5c0,0.6-0.4,1-1,1s-1-0.4-1-1V16c0-0.6,0.4-1,1-1    s1,0.4,1,1V21.5z"></path><path d="M23,6.8h-6V6c0-0.6-0.4-1-1-1s-1,0.4-1,1v0.8H9c-0.6,0-1,0.4-1,1s0.4,1,1,1h14c0.6,0,1-0.4,1-1S23.5,6.8,23,6.8z"></path></g></g></svg>